<?xml version="1.0" standalone="no"?>
<!DOCTYPE svg PUBLIC "-//W3C//DTD SVG 20010904//EN"
 "http://www.w3.org/TR/2001/REC-SVG-20010904/DTD/svg10.dtd">
<svg version="1.0" xmlns="http://www.w3.org/2000/svg"
 width="300.000000pt" height="300.000000pt" viewBox="0 0 300.000000 300.000000"
 preserveAspectRatio="xMidYMid meet">
<metadata>
Created by potrace 1.10, written by Peter Selinger 2001-2011
</metadata>
<g transform="translate(0.000000,300.000000) scale(0.050000,-0.050000)"
fill="#000000" stroke="none">
<path d="M2690 5400 c-33 -7 -82 -26 -110 -41 -27 -15 -57 -26 -65 -23 -8 2
-15 -5 -15 -16 0 -11 -14 -20 -31 -20 -16 0 -35 -13 -41 -29 -7 -16 -27 -34
-47 -41 -19 -6 -46 -33 -61 -60 -14 -27 -33 -45 -41 -40 -30 19 -86 -203 -87
-353 -1 -84 5 -149 13 -144 8 5 15 -5 15 -22 0 -17 -11 -31 -25 -32 -14 0 -9
-9 10 -21 20 -11 30 -29 24 -40 -7 -11 -2 -33 12 -49 13 -16 17 -29 9 -29 -8
0 -5 -12 7 -27 13 -15 18 -32 11 -38 -6 -6 4 -35 23 -63 22 -34 25 -52 10 -52
-16 0 -14 -13 6 -42 17 -24 25 -55 19 -70 -5 -16 -2 -28 9 -28 10 0 18 -54 17
-120 0 -66 -7 -120 -14 -120 -8 0 -7 -32 2 -70 9 -40 8 -75 -2 -81 -10 -7 -13
-20 -7 -30 6 -11 4 -20 -5 -20 -9 -1 -41 -5 -71 -9 -31 -4 -52 -1 -47 7 5 8
-37 16 -94 17 -57 1 -144 7 -194 14 -49 6 -130 16 -180 22 -105 12 -137 19
-185 39 -56 24 -404 -30 -442 -68 -12 -12 -37 -21 -57 -21 -20 0 -36 -7 -36
-16 0 -8 -29 -32 -65 -53 -69 -40 -145 -110 -145 -135 0 -8 -20 -29 -45 -47
-25 -17 -45 -49 -45 -70 0 -24 -14 -39 -35 -39 -26 -1 -28 -5 -9 -17 19 -12
21 -37 7 -98 -12 -55 -11 -89 3 -103 12 -12 15 -22 6 -22 -9 0 -6 -13 8 -30
13 -16 19 -43 13 -60 -7 -19 0 -30 19 -30 17 0 25 -9 18 -20 -7 -11 1 -26 19
-32 17 -7 25 -21 19 -31 -7 -11 7 -25 30 -31 23 -6 42 -25 42 -42 0 -17 5 -25
12 -19 6 6 29 -6 50 -27 21 -21 56 -38 78 -38 22 0 40 -8 40 -18 0 -10 20 -19
45 -20 228 -13 294 -19 312 -30 11 -7 25 -5 31 4 13 22 189 25 202 4 6 -9 28
-12 50 -6 49 13 52 -10 5 -48 -19 -16 -24 -23 -10 -16 16 8 20 1 13 -19 -7
-17 -20 -26 -29 -21 -9 6 -23 0 -31 -13 -9 -14 -6 -18 9 -9 15 9 23 -1 23 -27
0 -51 65 -118 142 -145 32 -11 58 -26 58 -33 0 -55 256 -1 360 76 114 83 124
96 95 115 -37 23 -93 98 -58 77 21 -12 24 -6 13 28 -11 36 -7 43 22 38 26 -5
38 -27 40 -77 2 -39 6 -70 8 -70 3 0 6 -146 9 -325 2 -179 -4 -325 -13 -325
-9 0 -14 -7 -12 -15 8 -29 -24 -151 -37 -138 -24 23 -69 -95 -81 -212 -12
-126 26 -355 60 -355 11 0 15 -6 8 -12 -7 -7 10 -42 37 -77 27 -36 49 -71 49
-79 0 -13 123 -136 186 -186 16 -13 35 -18 42 -11 7 6 12 1 12 -13 0 -13 8
-19 19 -13 10 6 24 3 31 -9 7 -11 34 -20 61 -20 27 0 49 -8 49 -18 0 -25 185
-11 238 17 24 13 51 18 61 12 10 -7 24 -3 31 9 7 11 26 20 42 20 63 0 268 209
268 273 0 26 8 47 18 47 9 0 15 70 12 155 -4 85 0 164 7 175 21 33 16 170 -6
170 -14 1 -14 5 0 15 27 19 34 291 8 274 -11 -6 -19 -2 -19 10 0 11 9 21 20
21 21 0 17 97 -6 133 -7 12 -6 28 2 36 15 15 21 82 33 351 l7 170 154 -2 c102
-2 145 4 127 17 -19 13 -15 14 13 4 22 -9 58 -14 80 -13 103 6 348 6 424 -1
51 -4 79 0 71 12 -7 12 3 14 25 6 20 -8 78 -24 128 -35 50 -11 100 -27 111
-37 25 -19 231 -19 231 0 0 8 41 24 90 37 50 12 112 41 138 64 27 23 53 42 59
41 24 -2 128 111 142 153 7 24 21 40 30 34 44 -27 91 144 98 356 5 171 12 212
32 195 18 -15 23 -78 18 -223 -6 -172 -3 -199 21 -180 15 13 23 41 18 63 -6
23 -1 39 14 39 14 0 19 13 12 31 -7 19 -3 26 10 18 15 -10 18 1 8 31 -10 33
-8 41 10 30 18 -11 21 6 10 70 -10 60 -8 81 8 71 13 -8 17 -2 10 18 -7 17 -24
31 -39 31 -14 0 -32 18 -39 40 -7 22 -21 35 -31 29 -11 -6 -19 -1 -19 11 0 12
-8 17 -18 11 -28 -17 -82 10 -82 42 0 15 -13 33 -30 40 -16 6 -25 19 -19 29 7
10 -2 24 -19 30 -17 7 -50 43 -74 81 -23 38 -47 65 -52 60 -5 -6 -32 10 -59
34 -28 23 -56 43 -64 43 -7 0 -22 6 -33 12 -44 24 -394 4 -412 -24 -10 -16
-18 -20 -18 -11 0 10 -11 9 -25 -1 -14 -10 -47 -20 -73 -21 -27 -2 -54 -12
-60 -22 -7 -11 -46 -18 -87 -16 -49 2 -75 -5 -75 -22 0 -14 -25 -25 -59 -25
-32 0 -64 -9 -70 -19 -7 -11 -25 -14 -42 -8 -16 6 -29 2 -29 -10 0 -12 -15
-16 -33 -9 -25 9 -29 6 -17 -14 12 -19 8 -23 -15 -15 -18 7 -43 -1 -57 -17
-13 -16 -36 -25 -50 -20 -14 5 -29 0 -33 -12 -3 -11 -39 -22 -78 -23 -47 -2
-69 -11 -63 -27 6 -16 -5 -22 -32 -16 -23 4 -42 0 -42 -9 0 -27 -162 -10 -179
18 -13 20 -18 20 -27 -2 -9 -21 -18 -19 -41 9 -16 20 -35 36 -41 35 -7 0 -11
5 -10 12 1 7 -13 21 -30 31 -18 10 -32 27 -32 38 0 11 10 14 22 7 15 -9 14 1
-2 31 -16 30 -17 40 -2 31 12 -7 22 -4 22 8 0 11 -11 21 -25 21 -17 1 -15 7 5
20 17 11 23 20 15 20 -9 0 -1 22 16 49 18 27 33 56 33 65 0 9 10 39 20 66 11
28 22 60 24 73 2 13 16 38 31 55 15 18 21 38 15 45 -7 6 1 25 17 41 16 16 29
51 29 77 0 27 7 49 15 49 8 0 17 28 19 62 3 33 17 86 32 117 42 83 32 372 -16
461 -21 39 -36 77 -34 86 2 8 -9 20 -26 27 -26 10 -27 17 -6 43 15 18 16 26 4
18 -12 -7 -39 1 -60 18 -21 17 -25 24 -10 16 19 -9 23 -6 14 9 -8 13 -27 23
-42 23 -15 0 -35 12 -44 27 -9 14 -32 32 -52 39 -22 8 -31 24 -22 39 8 14 8
19 0 12 -8 -7 -55 4 -104 26 -94 41 -343 61 -458 37z m465 -212 c226 -114 317
-409 216 -698 -19 -55 -47 -136 -62 -180 -14 -44 -64 -170 -110 -280 -56 -133
-88 -241 -94 -322 -11 -129 -9 -132 107 -230 21 -18 47 -46 58 -64 47 -76 338
-68 540 15 319 131 830 290 981 305 247 26 391 -119 438 -440 59 -408 -369
-741 -719 -559 -74 39 -119 42 -642 49 l-563 6 -12 -230 c-7 -126 -18 -509
-24 -850 -13 -722 -10 -693 -97 -760 -188 -143 -478 -123 -630 43 -218 240
-254 460 -107 669 l75 108 6 535 6 535 -728 0 c-845 0 -816 -7 -922 206 -143
286 263 628 654 552 46 -9 260 -40 474 -68 215 -28 419 -56 455 -63 l65 -11 0
303 c0 317 -32 503 -139 806 -176 496 287 869 774 623z m-955 -2666 c0 -70
-280 -100 -415 -44 -114 47 -71 62 175 62 132 0 240 -8 240 -18z"/>
<path d="M3835 2532 c6 -10 -12 -12 -42 -5 -29 8 -53 6 -53 -4 0 -10 -23 -15
-50 -12 -28 3 -46 -2 -40 -11 6 -10 -10 -20 -35 -24 -30 -4 -47 -22 -52 -54
-5 -37 -11 -42 -25 -20 -13 22 -17 19 -18 -13 0 -82 150 -169 299 -172 72 -1
154 -4 181 -5 28 -1 55 5 62 14 6 9 50 17 96 18 46 0 97 14 113 30 17 16 45
32 63 35 19 2 37 14 41 26 5 15 -108 21 -377 18 -298 -2 -386 3 -393 23 -7 19
16 24 88 21 305 -16 712 3 687 33 -13 16 -33 25 -42 19 -10 -6 -18 -2 -18 10
0 11 -18 21 -41 21 -22 0 -46 14 -52 31 -10 25 -17 26 -43 5 -18 -15 -26 -17
-20 -6 7 12 -29 22 -91 26 -57 3 -136 7 -176 10 -41 2 -68 -4 -62 -14z"/>
</g>
</svg>
